<svg width="5" height="15" viewBox="0 0 5 15" fill="none" xmlns="http://www.w3.org/2000/svg">
<path d="M3.1 0.5C3.7 0.5 4.10667 0.613333 4.32 0.84C4.53333 1.05333 4.64 1.45333 4.64 2.04V2.26C4.64 2.84667 4.53333 3.25333 4.32 3.48C4.10667 3.69333 3.7 3.8 3.1 3.8H1.54C0.94 3.8 0.533333 3.69333 0.32 3.48C0.106667 3.25333 0 2.84667 0 2.26V2.04C0 1.45333 0.106667 1.05333 0.32 0.84C0.533333 0.613333 0.94 0.5 1.54 0.5H3.1ZM3.72 4.6C4.02667 4.6 4.23333 4.66 4.34 4.78C4.46 4.88667 4.52 5.09333 4.52 5.4V14.2C4.52 14.5067 4.46 14.72 4.34 14.84C4.23333 14.9467 4.02667 15 3.72 15H0.92C0.613333 15 0.4 14.9467 0.28 14.84C0.173333 14.72 0.12 14.5067 0.12 14.2V5.4C0.12 5.09333 0.173333 4.88667 0.28 4.78C0.4 4.66 0.613333 4.6 0.92 4.6H3.72Z" fill="#9887CE"/>
</svg>
