<svg width="6" height="15" viewBox="0 0 6 15" fill="none" xmlns="http://www.w3.org/2000/svg">
<path d="M3.77867 0.5C4.37867 0.5 4.78534 0.613333 4.99867 0.84C5.21201 1.05333 5.31867 1.45333 5.31867 2.04V2.26C5.31867 2.84667 5.21201 3.25333 4.99867 3.48C4.78534 3.69333 4.37867 3.8 3.77867 3.8H2.21867C1.61867 3.8 1.21201 3.69333 0.998672 3.48C0.785339 3.25333 0.678672 2.84667 0.678672 2.26V2.04C0.678672 1.45333 0.785339 1.05333 0.998672 0.84C1.21201 0.613333 1.61867 0.5 2.21867 0.5H3.77867ZM4.39867 4.6C4.70534 4.6 4.91201 4.66 5.01867 4.78C5.13867 4.88667 5.19867 5.09333 5.19867 5.4V14.2C5.19867 14.5067 5.13867 14.72 5.01867 14.84C4.91201 14.9467 4.70534 15 4.39867 15H1.59867C1.29201 15 1.07867 14.9467 0.958672 14.84C0.852005 14.72 0.798672 14.5067 0.798672 14.2V5.4C0.798672 5.09333 0.852005 4.88667 0.958672 4.78C1.07867 4.66 1.29201 4.6 1.59867 4.6H4.39867Z" fill="#47BAC1"/>
</svg>
