<svg width="29" height="29" viewBox="0 0 29 29" fill="none" xmlns="http://www.w3.org/2000/svg">
<circle cx="14.5" cy="14.5" r="13.5" fill="#2D2E42" stroke="#9887CE" stroke-width="2"/>
<path d="M15.1 7.5C15.7 7.5 16.1067 7.61333 16.32 7.84C16.5333 8.05333 16.64 8.45333 16.64 9.04V9.26C16.64 9.84667 16.5333 10.2533 16.32 10.48C16.1067 10.6933 15.7 10.8 15.1 10.8H13.54C12.94 10.8 12.5333 10.6933 12.32 10.48C12.1067 10.2533 12 9.84667 12 9.26V9.04C12 8.45333 12.1067 8.05333 12.32 7.84C12.5333 7.61333 12.94 7.5 13.54 7.5H15.1ZM15.72 11.6C16.0267 11.6 16.2333 11.66 16.34 11.78C16.46 11.8867 16.52 12.0933 16.52 12.4V21.2C16.52 21.5067 16.46 21.72 16.34 21.84C16.2333 21.9467 16.0267 22 15.72 22H12.92C12.6133 22 12.4 21.9467 12.28 21.84C12.1733 21.72 12.12 21.5067 12.12 21.2V12.4C12.12 12.0933 12.1733 11.8867 12.28 11.78C12.4 11.66 12.6133 11.6 12.92 11.6H15.72Z" fill="#9887CE"/>
</svg>
