<svg width="14" height="13" viewBox="0 0 14 13" fill="none" xmlns="http://www.w3.org/2000/svg">
<path d="M12.7966 0C13.3086 0 13.6046 0.0960002 13.6846 0.288001C13.7646 0.48 13.6846 0.76 13.4446 1.128L10.2526 6.048L13.6606 11.352C13.9166 11.752 13.9966 12.04 13.9006 12.216C13.8206 12.392 13.5086 12.48 12.9646 12.48H9.82057C9.54857 12.48 9.32457 12.48 9.14857 12.48C8.97257 12.464 8.82057 12.432 8.69257 12.384C8.58057 12.32 8.47657 12.232 8.38057 12.12C8.28457 12.008 8.18857 11.856 8.09257 11.664L6.96457 9.312L5.86057 11.664C5.68457 12.048 5.47657 12.28 5.23657 12.36C4.99657 12.44 4.62857 12.48 4.13257 12.48H1.01257C0.436571 12.48 0.108571 12.392 0.0285714 12.216C-0.0514286 12.024 0.0365714 11.736 0.292571 11.352L3.74857 6.072L0.460571 1.128C0.236571 0.808 0.164571 0.544 0.244571 0.336C0.324571 0.112 0.644571 0 1.20457 0H4.27657C4.80457 0 5.18857 0.0480003 5.42857 0.144001C5.66857 0.224001 5.87657 0.448001 6.05257 0.816L7.01257 2.736L7.94857 0.816C8.04457 0.624 8.13257 0.472001 8.21257 0.360001C8.30857 0.248001 8.41257 0.168 8.52457 0.12C8.65257 0.0720005 8.79657 0.0400004 8.95657 0.0239997C9.13257 0.0079999 9.34857 0 9.60457 0H12.7966Z" fill="white"/>
</svg>
